<svg width="388" height="122" xmlns="http://www.w3.org/2000/svg"><g fill="none" fill-rule="evenodd"><path fill="#fafafa" d="m259.875 31.167.042 30.583h9.666l.042-30.583.043-30.584h-9.836l.043 30.584M27.833 3.516c0 .123-.271.145-.833.067-.535-.073-.833-.053-.833.058 0 .104-.238.133-.61.073-.449-.073-.576-.047-.486.1.09.145.001.169-.325.087-.302-.076-.496-.037-.595.118-.105.166-.147.173-.148.023-.002-.115-.116-.209-.253-.209s-.25.057-.25.125c-.001.069-.241.134-.535.145-.293.011-.559.096-.591.19-.031.095-.215.13-.408.08-.193-.051-.309-.024-.258.059.084.136-.181.194-1.087.24-.466.023-1.454.481-1.454.673 0 .096-.064.136-.141.088-.248-.153-1.376.238-1.255.435.069.11.037.136-.078.065-.106-.065-.399-.007-.651.129-.252.137-.909.457-1.459.713-.55.256-1.075.524-1.166.595-.496.386-1.972 1.297-2.1 1.297-.083 0-.15.056-.15.125 0 .068-.494.49-1.096.936-.603.446-1.136.915-1.185 1.042-.049.126-.171.23-.272.23-.328 0-3.775 3.903-3.784 4.283-.001.073-.189.31-.416.526-.228.216-.414.458-.414.539 0 .08-.25.541-.556 1.024-.928 1.464-2.519 5.039-2.358 5.299.045.074.003.16-.094.193-.097.032-.192.338-.209.68-.018.342-.097.622-.176.622-.078 0-.098.117-.043.259.064.168.032.217-.092.141-.129-.08-.161-.005-.099.233.05.194.027.374-.052.401-.079.028-.165.481-.191 1.007-.026.527-.109.958-.185.959-.076 0-.087.235-.024.522.087.393.064.489-.093.392-.158-.098-.18.016-.094.479.077.41.053.608-.075.608-.133 0-.155.257-.073.854.084.61.065.822-.067.74-.133-.081-.186.486-.186 1.979 0 1.378.061 2.093.179 2.093.12 0 .14.31.061.941-.089.71-.069.91.082.816.149-.091.17.037.083.501-.09.477-.069.594.09.496.157-.097.18-.001.093.392-.074.337-.049.521.069.521.115 0 .142.165.072.442-.067.266-.047.402.049.342.095-.059.139.172.107.569-.036.457.006.631.133.553.124-.077.148.001.072.24-.062.195-.039.354.05.354s.12.162.068.359c-.07.268-.038.325.125.225.124-.077.178-.07.125.017C1.483 42.099 3.862 48 4.37 48c.083 0 .107.069.055.153-.052.085.002.253.121.375.118.122.424.581.679 1.02.255.439.684 1.049.953 1.356.269.306.489.608.489.67 0 .32 3.48 3.625 3.689 3.504.125-.072.174-.072.108.001-.169.187.169.754.45.754.13 0 .296.104.369.23.379.652 5.642 3.706 6.562 3.809.223.024.48.133.572.241.223.263 1.542.598 1.779.452.123-.076.142-.041.057.098-.088.142-.056.188.097.137.127-.042.336.029.465.158a.632.632 0 0 0 .543.154c.17-.044.309-.025.309.043 0 .069.225.111.5.095s.5.042.5.13c0 .087.15.12.333.072.21-.055.293-.022.224.09-.073.118.067.141.425.07.376-.075.5-.051.418.081-.08.129.023.162.325.104.243-.046.441-.011.441.078 0 .096.245.116.6.05.406-.077.564-.056.49.064-.153.248.505.225.918-.031.223-.138.376-.151.456-.038.143.203 5.203.251 5.203.049 0-.075.15-.136.333-.136.184 0 .334.075.334.167 0 .092.187.167.416.167.23 0 .417-.081.417-.18 0-.113.185-.139.5-.07.309.068.5.042.5-.066 0-.107.197-.137.5-.076.297.059.5.03.5-.072 0-.094.15-.133.333-.085.184.048.334.011.334-.083s.15-.131.333-.083c.183.048.333.018.333-.066s.263-.122.584-.084c.322.037.583-.007.583-.099 0-.091.094-.162.208-.158.536.02.803-.059.71-.21-.059-.094.008-.122.157-.065.142.054.258.032.258-.05s.132-.161.292-.177c.7-.067 1.005-.148 1.749-.461.435-.182.792-.393.792-.467 0-.074.074-.089.164-.034.241.149.865-.234.732-.448-.067-.109-.037-.138.072-.07.191.118 1.369-.304 1.527-.547.049-.076.418-.317.82-.535 1.15-.626 1.39-.774 1.5-.928.056-.079.311-.277.566-.439.261-.166.414-.376.349-.48-.066-.108-.039-.139.066-.074.41.253 4.362-3.67 4.109-4.08-.053-.085-.03-.134.05-.109.143.045 1.097-.956 1.23-1.288.036-.091.328-.607.649-1.145 1.146-1.922 1.685-3.008 1.718-3.453.017-.249.08-.423.14-.386.11.068.359-.437.263-.534-.029-.029-2.708-.061-5.952-.071l-5.899-.019-.308.601c-.17.331-.263.676-.206.767.056.091.015.145-.092.119-.107-.025-.282.099-.388.275-1.448 2.406-5.662 5.569-7.989 5.997-.346.064-.59.18-.541.259.048.078-.074.1-.272.049-.262-.069-.324-.037-.229.116.096.156.037.181-.224.099-.195-.062-.354-.043-.354.042 0 .085-.199.117-.442.07-.325-.062-.407-.029-.312.125.095.154.031.177-.246.089-.244-.077-.424-.04-.514.106-.111.179-.181.183-.346.018-.247-.247-1.207-.284-1.057-.04.066.106-.415.166-1.323.166-.84 0-1.427-.068-1.427-.166 0-.235-.892-.209-1.133.033-.156.156-.2.151-.2-.021 0-.157-.147-.191-.509-.119-.355.071-.473.045-.392-.087.08-.128-.023-.161-.325-.104-.242.047-.441.011-.441-.078 0-.09-.133-.128-.297-.086a.585.585 0 0 1-.519-.161.603.603 0 0 0-.537-.157c-.173.045-.314.026-.314-.041 0-.068-.093-.124-.208-.125-.251-.002-2.232-.868-3.346-1.462-.442-.237-.875-.386-.962-.332-.087.054-.138.005-.113-.109.025-.114-.136-.302-.358-.418-.971-.505-3.418-2.975-4.763-4.808-.462-.63-1.916-3.444-1.916-3.708 0-.12-.08-.217-.177-.217-.097 0-.135-.067-.084-.149.091-.148-.347-1.359-.55-1.518-.058-.046-.114-.417-.123-.825-.009-.408-.095-.768-.19-.8-.096-.032-.136-.204-.089-.383.047-.179.012-.325-.078-.325s-.127-.188-.083-.417c.045-.239.001-.417-.103-.417-.113 0-.144-.188-.082-.5.062-.308.031-.5-.079-.5-.118 0-.146-.287-.081-.833.054-.458.032-.833-.05-.833-.081 0-.152-.638-.158-1.417-.005-.789.06-1.417.148-1.417.092 0 .117-.351.059-.838-.07-.595-.045-.806.086-.724.13.08.156-.071.086-.499-.068-.423-.043-.578.084-.5.125.078.149-.054.076-.421-.076-.376-.052-.5.081-.418.128.08.162-.022.105-.32-.052-.27-.019-.397.085-.332.104.064.133-.035.075-.255-.052-.198-.035-.359.036-.359.072 0 .143-.188.159-.417.065-.96.092-1.083.234-1.083.081 0 .104-.117.049-.259-.065-.169-.032-.217.094-.139.129.079.158.027.087-.158-.059-.153-.04-.278.042-.278.081 0 .239-.274.349-.61.536-1.623 2.139-4.205 3.619-5.831.208-.228.328-.496.266-.596-.064-.104-.034-.133.069-.069.1.061.393-.076.651-.305.83-.736.946-.83 1.63-1.324.371-.267.698-.548.729-.625.03-.077.195-.14.365-.14.17 0 .356-.075.414-.168.126-.204 2.32-1.238 2.957-1.393.252-.061.458-.183.458-.27 0-.087.125-.11.278-.052.175.068.236.041.166-.073-.072-.116.016-.146.249-.085.198.052.317.026.266-.057-.092-.149.239-.206 1.34-.232.303-.007.504-.084.45-.172-.06-.097.112-.117.436-.052.388.077.501.053.412-.09-.089-.145.057-.168.558-.088.399.064.679.042.679-.052 0-.093.742-.163 1.746-.167 1.153-.004 1.711.052 1.642.165-.07.112.133.132.598.058.521-.084.673-.062.583.084-.088.143.025.167.413.09.334-.067.496-.046.433.057-.056.09.053.164.241.164.189 0 .345-.094.346-.208.002-.151.043-.145.148.021.08.126.229.178.331.115.102-.063.185-.027.185.08s.113.151.25.098c.138-.052.25-.017.25.08 0 .096.093.144.207.106.114-.038.311.035.438.163.128.127.33.193.449.147.12-.046.242-.031.271.032.028.064.502.338 1.052.61 1.352.668 2.75 1.563 2.75 1.761 0 .089.086.162.192.162.105 0 .555.379 1 .843.444.464.867.806.94.761.073-.045.144.076.158.267.027.347.349.665.549.542.058-.036.105.025.105.136 0 .111.323.741.716 1.401l.716 1.2 5.895.012c3.914.008 5.896-.045 5.896-.159 0-.093-.08-.17-.177-.17-.097 0-.139-.061-.092-.136.113-.184-.231-1.143-.69-1.917-.206-.348-.375-.737-.375-.863 0-.127-.076-.278-.169-.335-.093-.058-.328-.419-.522-.802-.194-.383-.4-.735-.456-.78-.056-.046-.43-.561-.83-1.145-.401-.583-.835-1.183-.966-1.333-.992-1.136-1.422-1.522-1.587-1.421-.113.07-.142.042-.073-.07.154-.248-.521-.908-.778-.761-.111.064-.148.057-.083-.016.172-.19-.17-.754-.458-.754-.134 0-.244-.072-.244-.159 0-.181-2.752-2.175-3.002-2.175-.091 0-.165-.056-.165-.126 0-.213-2.801-1.58-2.994-1.461-.1.062-.16.023-.135-.086.044-.19-2.026-1.061-2.173-.914-.039.039-.184-.042-.323-.18-.138-.139-.354-.212-.48-.164-.126.048-.228.022-.228-.057 0-.08-.221-.13-.49-.111-.278.019-.447-.036-.39-.126.057-.093-.052-.121-.261-.066-.231.06-.32.03-.25-.084.07-.113-.02-.143-.25-.083-.228.06-.32.03-.251-.081.069-.113-.049-.146-.329-.092-.267.051-.396.018-.333-.084.065-.104-.057-.126-.324-.059-.276.069-.453.033-.498-.101-.055-.162-.131-.157-.347.021-.207.17-.277.176-.277.023 0-.137-.143-.169-.431-.097-.31.078-.396.053-.308-.09.092-.148-.054-.171-.569-.088-.461.073-.692.049-.692-.074 0-.125-.267-.148-.834-.07-.562.078-.833.056-.833-.067s-.686-.183-2.083-.183c-1.397 0-2.084.06-2.084.183M160.461 10.542l-.044 5.541-2.625.046-2.625.046v7.65l2.625.046 2.625.046v13.775c0 7.577.058 13.74.129 13.697.071-.044.078.237.016.624-.073.458-.054.668.055.601.104-.064.136.064.085.332-.046.24-.017.396.066.346.082-.05.169.257.193.683.025.442.149.854.289.958.135.101.206.222.158.27-.211.211 1.049 2.358 1.886 3.214 1.526 1.561 4.449 2.983 5.855 2.847.447-.043.647-.005.577.108-.072.117.099.135.516.057.437-.082.59-.062.511.066-.081.131.203.151.983.071.784-.08 1.097-.057 1.097.081 0 .141 1.111.18 4.209.148l4.208-.045.045-4.161c.035-3.271.001-4.118-.159-3.959-.277.278-6.469.292-6.469.015 0-.124-.229-.158-.667-.099-.448.06-.631.031-.557-.088.07-.113-.02-.143-.25-.083-.198.052-.36.037-.36-.032s-.299-.261-.666-.426c-.638-.288-1.5-1.194-1.5-1.578 0-.1-.101-.221-.223-.268-.163-.063-.205-.357-.155-1.096.047-.695.013-.975-.111-.899-.128.08-.168-3.513-.137-12.524l.042-12.635h11.25v-7.834h-11.25l-.044-5.541L169.996 5h-9.492l-.043 5.542M131.833 15.339c0 .111-.304.132-.858.059-.644-.086-.828-.065-.736.084.088.142.002.168-.308.09-.281-.07-.431-.04-.431.088 0 .12-.129.155-.333.09-.206-.065-.334-.03-.334.093 0 .141-.08.132-.277-.031-.206-.17-.294-.178-.344-.03-.037.11-.175.158-.306.107-.132-.05-.239-.004-.239.103s-.065.154-.144.106c-.534-.331-5.508 2.167-5.242 2.633.058.102.046.132-.027.066-.159-.144-.935.366-1.796 1.18l-.625.591v-2.243l.001-2.242-4.792.084-4.792.083-.083 22.792-.084 22.791h9.765l-.049-13.666c-.027-7.517.007-13.667.076-13.667.199 0 .145-.58-.075-.8-.156-.156-.151-.2.021-.2.157 0 .191-.146.119-.508-.072-.359-.046-.474.089-.391.129.08.16.002.096-.242-.06-.23-.03-.32.083-.25.114.07.144-.019.084-.25-.052-.197-.032-.359.044-.359.202 0 .544-1.137.431-1.432-.053-.139-.025-.208.061-.154.087.053.315-.246.506-.665.398-.874.579-1.118 1.816-2.448.496-.532.993-.968 1.105-.968.112 0 .303-.119.423-.264.121-.145.505-.378.853-.518.348-.139.597-.312.553-.383-.044-.072.013-.125.126-.118.438.025 1.614-.264 1.542-.38-.041-.067.121-.084.361-.038.298.056.4.023.32-.105-.082-.133.042-.157.418-.082.305.061.494.042.441-.044-.054-.087.674-.151 1.708-.151 1.001 0 1.761.065 1.71.147-.05.081.141.114.424.072.306-.045.475-.01.416.085s.081.126.342.077c.243-.047.441-.02.441.059s.122.143.271.143c.391 0 2.252.838 2.657 1.196.189.167.414.304.501.304.4 0 2.457 2.479 2.938 3.542.156.344.367.625.468.625.102 0 .14.073.084.163-.135.219.22 1.504.416 1.504.085 0 .112.112.059.25-.053.137-.023.25.065.25.089 0 .124.198.077.441-.054.284-.021.403.091.333.111-.068.142.021.084.242-.054.206.004.41.139.494.184.113.189.185.024.349-.249.249-.284 1.208-.038 1.056.113-.07.154 4.299.125 13.324l-.044 13.427h9.5V46.849c0-8.241-.058-14.948-.129-14.904-.071.044-.078-.237-.016-.625.084-.525.062-.673-.086-.582-.144.089-.169.003-.091-.307.075-.299.041-.431-.11-.431-.17 0-.174-.044-.018-.2.245-.245.267-.694.027-.546-.114.07-.134-.05-.059-.348.087-.35.064-.425-.103-.322-.14.087-.176.069-.102-.051.136-.22-.049-1.061-.212-.961-.062.039-.123-.056-.136-.209-.054-.668-.188-1.161-.506-1.863a30.926 30.926 0 0 1-.437-1c-.102-.26-.515-.93-1.34-2.178-1.001-1.512-3.436-3.776-3.812-3.543-.094.058-.123.028-.064-.068.279-.452-4.865-2.952-5.398-2.622-.087.053-.158.01-.158-.097s-.113-.151-.25-.098c-.138.052-.25.023-.25-.066s-.113-.161-.25-.161c-.138 0-.251.093-.253.208-.001.153-.04.149-.145-.018-.094-.147-.275-.184-.519-.107-.276.088-.341.065-.246-.089.098-.158-.019-.18-.496-.09-.451.085-.591.064-.505-.075.087-.141-.136-.16-.841-.072-.697.088-.927.069-.842-.069.083-.134-.268-.188-1.226-.188-.815 0-1.344.068-1.344.172M207.922 15.342c.09.145-.1.165-.734.078-.514-.071-.855-.054-.855.041 0 .088-.187.124-.416.08-.229-.044-.417-.01-.417.076s-.263.135-.583.11c-.321-.026-.584.023-.584.108 0 .085-.103.115-.23.066-.474-.182-4.374 1.762-5.436 2.711-.554.494-1.438 1.409-1.781 1.844-.201.253-.517.648-.703.877l-.339.417-.005-2.833-.005-2.834-4.749.047-4.749.047-.043 22.828-.043 22.828H195.847l-.049-13.166c-.027-7.482.015-13.167.098-13.167.081 0 .098-.306.038-.679-.08-.5-.057-.647.088-.557.143.088.168-.025.09-.413-.062-.31-.043-.495.046-.44.084.052.162-.113.173-.366.047-1.092.094-1.341.239-1.252.084.052.108-.024.052-.169-.056-.145-.003-.301.117-.347.12-.046.271-.296.336-.555.262-1.054 2.85-4.057 3.495-4.055.099 0 .48-.146.847-.324.92-.449 1.285-.567 1.625-.525.16.02.291-.033.291-.118 0-.084.199-.116.442-.069.292.055.403.023.329-.097-.076-.123.076-.151.476-.086.348.057.587.027.587-.073 0-.111.755-.139 2.169-.082l2.169.088-.044-5.065-.044-5.066-.808-.051c-.584-.038-.774.002-.687.143"/><path d="m281.5 4-6.583.083-.042 28.794-.043 28.794 5.837-.044 5.837-.044.006-18.5.007-18.5.343.75c.189.413.466 1.008.616 1.322.15.315.277.652.282.75.006.098.174.53.375.961.201.43.365.829.365.886 0 .056.176.492.392.967a94.8 94.8 0 0 1 1.774 4.198c.291.733.672 1.638.848 2.011.176.372.319.804.319.958 0 .154.063.281.14.281.077 0 .241.318.364.708.123.39.351 1.008.507 1.375.156.367.379.929.497 1.25.118.321.326.715.462.875.137.16.19.292.119.292-.071 0-.046.1.056.223.102.123.142.268.088.322-.054.054.02.31.164.568.487.874 1.583 3.387 1.476 3.387-.058 0-.016.09.094.2.11.11.2.335.2.5 0 .165.088.3.194.3.107 0 .152.042.1.095-.053.052.006.29.13.529.124.24.188.497.141.572-.047.075-.02.137.058.137.136 0 .561.977.649 1.49.023.131.186.544.362.916.604 1.272 1.116 2.483 1.091 2.58-.014.054.058.247.161.431.102.183.194.37.205.416.02.081.243.623.619 1.5.098.23.186.454.196.5.024.119.731 1.66 1.019 2.222.133.26.242.56.243.667.001.107.185.588.409 1.07l.408.875h4.353c4.563 0 4.675-.018 4.804-.749.032-.183.163-.535.291-.783.129-.249.234-.553.234-.677 0-.123.089-.314.198-.423.109-.109.219-.293.245-.408.131-.59.487-1.46.597-1.46.07 0 .126-.111.126-.245 0-.135.152-.515.337-.844.185-.33.293-.67.24-.755-.053-.086-.024-.156.066-.156.089 0 .212-.3.274-.667.062-.367.172-.667.245-.667.115 0 .211-.207.422-.916.028-.092.144-.392.26-.667.116-.275.198-.556.183-.625-.015-.069.048-.125.14-.125.092 0 .167-.082.167-.183 0-.101.12-.457.267-.792.449-1.024.541-1.259.659-1.692.063-.229.196-.517.295-.641.099-.123.204-.38.233-.57.029-.19.135-.445.236-.567.101-.122.126-.222.054-.222-.071 0 .002-.145.163-.322.161-.178.247-.397.191-.486-.055-.09-.024-.189.069-.22s.204-.235.246-.453c.042-.218.228-.689.415-1.046.186-.357.338-.758.338-.889 0-.132.15-.507.334-.834.183-.326.333-.668.333-.76 0-.092.124-.446.276-.787.151-.34.264-.676.25-.744-.014-.069.053-.125.151-.125.097 0 .13-.075.073-.167-.057-.092-.038-.167.042-.167s.241-.375.359-.833c.117-.458.269-.833.337-.833s.125-.094.128-.209c.002-.114.196-.621.43-1.125.234-.504.517-1.216.628-1.583.111-.367.323-.811.472-.987.149-.176.184-.27.078-.208-.106.062.019-.303.279-.811s.478-.958.485-1a12.317 12.317 0 0 0 .109-.553c.04-.216.222-.582.405-.814.182-.232.331-.527.331-.656s.147-.522.327-.874c.179-.351.279-.686.222-.743-.057-.057-.033-.104.054-.104s.175-.206.196-.458c.021-.252.112-.484.203-.514.091-.031.165-.175.165-.32 0-.146.131-.415.292-.599.207-.237.219-.292.041-.189-.205.118-.214.099-.048-.106.112-.137.354-.583.539-.99l.337-.741v37H337.75l.043-28.666c.023-15.767.014-28.742-.021-28.834-.041-.109-2.347-.138-6.686-.083l-6.623.083-.375 1.036c-.206.569-.488 1.208-.626 1.419a3.287 3.287 0 0 0-.37.923c-.065.296-.192.539-.282.539-.09 0-.119.071-.066.157.053.086-.006.252-.132.37a.577.577 0 0 0-.151.51c.043.163.001.296-.092.296-.161 0-.512.752-.639 1.368-.033.156-.206.526-.386.821-.18.296-.289.599-.242.675.046.075-.008.136-.12.136-.112 0-.158.046-.102.103.057.056-.118.517-.389 1.023-.27.507-.491 1.044-.491 1.194 0 .15-.11.43-.244.621-.134.192-.197.396-.139.454.058.058.005.105-.117.105-.122 0-.175.047-.118.105.058.057-.002.31-.132.562-.13.252-.191.503-.136.558.055.056-.018.146-.163.202-.145.056-.314.339-.376.629-.061.29-.245.79-.408 1.111-.537 1.053-1.357 3.114-1.287 3.234.02.035-.085.203-.235.374-.149.17-.372.609-.496.975a9.408 9.408 0 0 1-.521 1.214c-.162.3-.295.694-.295.875 0 .18-.075.328-.166.328a.172.172 0 0 0-.167.176c0 .194-.533 1.477-.919 2.213-.136.259-.248.539-.248.621 0 .082-.271.729-.603 1.438-.332.708-.616 1.377-.632 1.487-.016.109-.119.306-.229.439-.11.132-.163.276-.118.321.044.044-.137.506-.403 1.027-.266.52-.421.906-.344.859.077-.048.028.138-.109.413-.137.275-.32.543-.406.596-.085.053-.156.223-.156.378-.001.155-.225.732-.5 1.282-.274.55-.499 1.117-.499 1.26 0 .143-.111.405-.245.583-.135.178-.247.455-.25.615-.003.161-.081.292-.172.292-.092 0-.167.103-.167.23 0 .21-.438 1.288-1.124 2.77-.149.321-.285.64-.303.708a1.23 1.23 0 0 1-.073.209 1.358 1.358 0 0 0-.076.208 9.87 9.87 0 0 1-.23.594c-.107.258-.194.539-.194.625 0 .086-.075.156-.167.156-.091 0-.166.098-.166.218s-.119.364-.264.542c-.225.276-.25.281-.172.032.051-.161.025-.292-.056-.292-.082 0-.197-.222-.257-.493-.059-.271-.301-.89-.538-1.375-.236-.485-.43-.973-.432-1.083-.002-.111-.102-.239-.223-.286-.121-.046-.175-.199-.121-.34.054-.141.015-.256-.086-.256-.102 0-.173-.057-.158-.125.038-.182-.201-.8-.934-2.415-.239-.526-.417-.976-.396-1 .021-.024-.08-.269-.223-.544-.493-.941-1.031-2.166-1.087-2.472-.03-.168-.242-.624-.471-1.014-.228-.39-.373-.751-.321-.802.051-.052-.137-.526-.419-1.054-.281-.528-.474-.999-.427-1.045.047-.047-.039-.223-.191-.391s-.208-.306-.125-.308c.083-.001.059-.06-.053-.132-.113-.071-.23-.276-.26-.456-.031-.179-.265-.761-.52-1.292-.256-.532-.478-1.057-.494-1.168-.017-.111-.192-.513-.39-.892-.198-.38-.319-.731-.27-.781.05-.05-.067-.312-.261-.584-.193-.271-.351-.573-.351-.671 0-.098-.202-.611-.448-1.141-.247-.53-.471-1.091-.498-1.247-.028-.157-.201-.532-.385-.834-.184-.302-.335-.675-.335-.829a.842.842 0 0 0-.215-.5c-.118-.121-.309-.541-.425-.933-.116-.391-.436-1.123-.711-1.625-.275-.501-.458-.912-.405-.912.053 0-.09-.35-.317-.777-.228-.428-.375-.84-.328-.917.048-.077.007-.139-.09-.139s-.177-.123-.177-.272c0-.15-.144-.506-.321-.792-.176-.286-.335-.595-.351-.686-.017-.092-.172-.445-.346-.785-.173-.341-.339-.773-.367-.961-.029-.188-.142-.431-.25-.54a.786.786 0 0 1-.198-.484c0-.157-.056-.311-.125-.341-.069-.031-.248-.394-.398-.806-.546-1.498-.73-1.919-.894-2.039-.091-.067-.101-.124-.021-.125.08-.002.058-.108-.048-.236-.106-.128-.226-.404-.266-.612-.041-.209-.157-.432-.258-.494-.102-.063-.167-.144-.144-.179.095-.15-.387-1.315-.543-1.315-.095 0-.13-.11-.078-.245.136-.356.407-.345-6.725-.255M362.782 15.107c.331-.331 6.798.157 7.573.571.175.094.38.133.456.086.185-.115 1.332.188 1.897.501.252.14.459.21.459.157 0-.054.225.019.5.161l.1.05c.228.111.4.168.4.13 0-.043.225-.001.499.095.275.096.457.244.405.329-.053.085-.034.144.042.131a.657.657 0 0 1 .262.016c.069.023.181.054.25.071.386.091 2.375 1.17 2.375 1.288 0 .077.117.14.26.14.143 0 .213.075.157.167-.092.148.024.197.36.152.06-.008.176.104.258.25.082.145.229.265.328.265.1 0 .707.525 1.35 1.166l.128.127c.591.583 1.11 1.04 1.183 1.04.079 0 .143.084.143.186 0 .103.227.459.505.792.703.841.758.917.803 1.105.022.092.281.422.574.734.294.311.432.508.307.437-.125-.072.044.293.375.811s.602 1.02.602 1.117c0 .096.203.521.451.944.248.423.363.715.256.649-.106-.066-.002.298.232.809.234.511.382 1.043.329 1.181-.055.143-.026.208.068.15.093-.057.164.101.164.367.001.257.118 1.031.262 1.718.487 2.325.562 5.602.201 8.833l-.046.417-16.713.042-16.713.043.056.547c.031.301.099.619.15.707.052.089.146.517.209.953.063.435.185.791.271.791.086 0 .147.057.134.125-.049.278.241 1.209.377 1.209.08 0 .146.076.146.17 0 .093.203.487.452.875.25.387.456.744.459.792.008.127 1.104 1.173 2.035 1.942 2.044 1.688 5.665 2.586 8.304 2.059.55-.109 1.112-.212 1.25-.227.137-.015.294-.088.348-.161.054-.074.279-.143.5-.155.221-.011.495-.092.61-.179.115-.086.208-.11.208-.053s.144-.028.319-.188c.149-.136.655-.517 1.2-.908l.3-.212c.65-.455 1.181-.92 1.181-1.033 0-.113.104-.266.23-.339.126-.073.434-.527.684-1.008l.455-.875h7.508c5.33.007 5.514.079 4.969.734-.105.127-.176.295-.158.373.019.079-.126.5-.322.936-.098.218-.186.422-.25.573l-.062.154a.567.567 0 0 0-.037.107c.068.4-2.26 4.043-3.138 4.911-.3.297-.545.615-.545.709 0 .093-.057.151-.125.128-.069-.023-.128-.005-.132.041-.014.185-.816 1-.983 1-.099 0-.276.153-.392.34-.117.187-.297.288-.4.224-.11-.068-.14-.04-.073.069.063.102-.055.273-.266.383-.208.11-.661.42-1.004.689-.344.27-.628.427-.631.351-.003-.076-.096-.025-.208.113-.235.293-1.12.883-1.12.748 0-.051-.224.024-.498.166-.274.141-.547.249-.606.24-.06-.01-.154.045-.21.121-.098.133-1.056.538-1.461.617-.105.02-.313.138-.462.262-.149.124-.313.182-.365.13-.052-.051-.406.019-.788.158-.381.138-.768.269-.86.291-1.818.432-2.501.495-5.5.504-3.99.013-5.994-.186-7.416-.737-.413-.16-.882-.27-1.042-.244-.16.025-.292-.027-.292-.116 0-.089-.056-.127-.126-.084-.069.043-.42-.065-.779-.24-.36-.175-.782-.318-.937-.318a.728.728 0 0 1-.484-.241l-.053-.053c-.148-.128-.463-.293-.754-.389-.334-.11-.694-.283-.8-.384-.338-.321-.861-.649-.979-.613-.062.019-.247-.12-.412-.309-.164-.189-.377-.344-.474-.344-.097 0-.407-.231-.689-.513-.282-.282-.513-.469-.513-.414 0 .15-2.704-2.641-3.082-3.181-.183-.262-.314-.532-.292-.601.023-.068-.053-.106-.167-.083-.115.023-.193-.042-.174-.145.019-.102-.186-.433-.456-.735s-.538-.706-.596-.897a2.027 2.027 0 0 0-.352-.629c-.136-.155-.201-.356-.144-.447a.2.2 0 0 0-.07-.272c-.188-.116-.68-1.155-.775-1.635-.033-.166-.211-.634-.395-1.04-.185-.405-.364-1.028-.398-1.383-.035-.356-.148-.806-.252-1.001-.179-.335-.352-1.381-.396-2.399-.011-.252-.069-.459-.129-.459-.07 0-.105-1.156-.11-2.559v-.808c.007-1.92.064-3.967.157-4.084.088-.11.109-.283.048-.383-.102-.164.135-1.547.371-2.166.14-.364.209-.691.255-1.208.022-.252.109-.458.193-.458s.11-.044.057-.096c-.053-.053.046-.418.22-.81.174-.393.343-.856.377-1.029.093-.476.804-1.974.967-2.038.079-.03.143-.15.143-.266 0-.306.467-1.193.754-1.431.135-.112.246-.304.246-.426s.12-.288.265-.369c.146-.082.259-.198.251-.258-.014-.108.465-.719 1.012-1.292.153-.16.26-.316.238-.346-.059-.084 2.556-2.595 2.628-2.524.034.034.24-.127.459-.357.218-.231.494-.421.613-.422.118-.002.365-.143.549-.314.184-.171.612-.452.951-.624.34-.172.719-.385.843-.473a1.27 1.27 0 0 1 .416-.194c.106-.019.567-.206 1.025-.417.459-.21.89-.367.96-.348.069.019.444-.114.833-.296.389-.181.895-.364 1.124-.404.229-.041.417-.09.417-.109 0-.018.15-.052.333-.075.183-.022.596-.092.917-.154.611-.119 1.09-.192 2.329-.352.41-.053.764-.114.786-.136zm3.468 9.775c-2.308-.207-4.534.053-5.687.663-.286.151-.568.228-.625.171-.058-.058-.105-.026-.105.07s-.131.218-.291.271c-.591.193-1.957 1.096-1.917 1.267.023.097-.103.176-.28.176a.471.471 0 0 0-.421.309c-.054.17-.319.526-.59.792-.27.265-.493.567-.496.67-.003.104-.117.282-.255.396-.137.114-.25.321-.25.46s-.131.36-.291.492c-.161.131-.183.182-.051.113.141-.073.085.094-.136.405-.208.291-.32.53-.25.53.071 0 .044.084-.059.187a.43.43 0 0 0-.098.418c.049.128.006.333-.096.455-.102.123-.233.573-.291.999l-.107.776 10.732-.042c7.93-.032 10.721-.093 10.695-.234-.02-.104-.075-.601-.124-1.102-.049-.502-.216-1.204-.371-1.56a20.518 20.518 0 0 1-.309-.731c-.202-.622-.47-1.166-.574-1.166-.072 0-.178-.132-.236-.292-.165-.457-.547-1.064-.663-1.052-.057.006-.106-.025-.108-.069-.006-.123-.825-.915-.932-.901-.052.007-.313-.196-.58-.451-.266-.256-.485-.394-.487-.308-.001.088-.056.083-.125-.011-.311-.423-3.148-1.641-3.505-1.504a.536.536 0 0 1-.424-.032c-.106-.066-.418-.14-.693-.165zM81.167 15.381c-.046.045-.707.132-1.469.193-.762.061-1.474.142-1.583.18a7.227 7.227 0 0 1-.698.167c-.275.053-.575.118-.667.144-.092.027-.448.106-.792.177-.343.071-.625.2-.625.286 0 .087-.075.112-.166.055-.092-.056-.261-.044-.375.028a1.002 1.002 0 0 1-.375.14c-.092.005-.457.138-.812.296-.355.157-.732.286-.837.286-.105 0-.467.188-.804.417-.337.229-.729.417-.872.417-.142 0-.259.066-.259.146 0 .081-.223.239-.495.352a3.768 3.768 0 0 0-.82.478c-.864.73-1.028.857-1.11.857-.129 0-.424.262-2.015 1.792-.787.756-1.387 1.375-1.334 1.375.053 0-.125.243-.395.541-.909 1.002-.997 1.124-.997 1.385 0 .143-.073.215-.162.16-.089-.055-.21.091-.268.324-.059.232-.178.423-.265.423-.087 0-.112.076-.055.168.057.092-.013.213-.156.268-.144.055-.261.207-.261.338 0 .131-.128.434-.285.673-.157.239-.308.581-.335.759-.027.179-.161.484-.298.68-.137.195-.249.488-.249.651 0 .163-.087.296-.194.296-.107 0-.149.046-.093.102.056.056-.036.487-.205.959-.37 1.029-.566 1.74-.604 2.189-.028.336-.196 1.311-.358 2.084-.227 1.084-.204 5.976.036 7.416.137.825.283 1.763.323 2.084.103.819.738 2.941 1.148 3.833.19.413.353.787.363.833.089.418.334.967.533 1.194.134.152.259.387.279.522.02.135.238.509.484.832.246.323.536.782.645 1.02.108.238.26.432.337.432.077 0 .14.101.14.224 0 .38 2.773 3.275 3.141 3.279.239.002.242.024.025.164-.189.122-.196.162-.026.164.302.004 1.042.598.91.731-.058.058.023.105.179.105.157 0 .475.189.706.42.231.231.49.376.575.323.086-.053.156-.017.156.08 0 .098.109.177.242.177a.49.49 0 0 1 .375.225c.151.255 2.051 1.176 2.778 1.346.264.062.585.218.714.347.129.129.345.192.479.14.135-.051.246-.017.246.076s.131.149.291.123a.729.729 0 0 1 .5.118c.115.091.209.11.209.042 0-.069.109-.034.242.077.134.111.321.153.417.094.096-.059.174-.038.174.047 0 .812 9.22.838 12.167.034l1.5-.409a3.17 3.17 0 0 0 .333-.106 1.16 1.16 0 0 1 .25-.062c.092-.013.354-.13.583-.258.23-.129.529-.26.667-.29l.418-.096c.093-.021.479-.201.859-.399.379-.198.723-.327.763-.287.04.04.209-.077.376-.261.166-.184.393-.334.504-.334.111 0 .389-.148.619-.328.229-.181.462-.282.518-.226.056.056.149-.022.207-.172.058-.151.209-.274.337-.274.128 0 .233-.057.233-.125.001-.069.282-.311.625-.538.763-.506 4.536-4.337 4.271-4.337-.05 0 .146-.3.437-.667.29-.367.477-.667.416-.667-.062 0 .063-.209.277-.466.215-.256.566-.875.78-1.375.215-.5.552-1.243.75-1.652.198-.409.369-.802.381-.875a.89.89 0 0 1 .062-.215 1.74 1.74 0 0 0 .077-.375c.019-.16.122-.503.229-.761.107-.258.194-.582.194-.719 0-.138.072-.384.16-.548.087-.163.204-.702.259-1.197.055-.495.165-1.371.245-1.946.186-1.339.177-4.449-.018-5.954a27.767 27.767 0 0 1-.175-1.708c-.014-.298-.092-.542-.174-.542-.082 0-.109-.066-.058-.148.094-.153-.134-.995-.445-1.639-.098-.203-.172-.597-.164-.875.008-.277-.06-.505-.151-.505s-.119-.075-.062-.166c.057-.092.019-.167-.083-.167-.103 0-.142-.072-.088-.16.055-.089-.297-.953-.781-1.921l-1.046-2.09c-.09-.181-.226-.329-.301-.329-.076 0-.091-.075-.034-.167.056-.091.025-.166-.07-.166-.096 0-.322-.291-.503-.646-.181-.356-.445-.691-.587-.745-.141-.054-.257-.196-.257-.315 0-.118-.186-.355-.414-.526-.227-.171-.373-.376-.323-.456.049-.08.029-.146-.045-.146-.226 0-1.051-.775-1.051-.987 0-.11-.067-.158-.149-.107-.081.05-.271-.095-.42-.324-.15-.228-.38-.415-.513-.415-.132 0-.32-.15-.418-.333-.098-.184-.255-.334-.348-.334-.264 0-1.327-.766-1.235-.889.046-.061.034-.075-.025-.031-.139.103-1.392-.597-1.392-.777 0-.075-.057-.124-.125-.109-.132.028-.588-.147-1.751-.672-1.195-.541-1.958-.841-1.958-.772 0 .037-.243-.035-.541-.16-.298-.124-.598-.233-.667-.241a1.628 1.628 0 0 1-.167-.028 12.478 12.478 0 0 0-.458-.085 131.41 131.41 0 0 1-1.333-.249c-.505-.096-1.104-.208-1.334-.249-.662-.119-5.074-.281-5.166-.19M229.667 15.537c-.505.079-1.18.173-1.5.208-.956.107-1.452.218-1.797.402-.179.096-.371.13-.426.075-.055-.055-.29.024-.522.176-.232.152-.422.238-.422.191 0-.113-1.145.32-2.5.946-.596.274-1.364.612-1.707.75-.343.138-.583.317-.532.399.051.082-.019.149-.155.149s-.46.169-.72.375c-.259.207-.592.45-.739.542-.908.567-1.366.955-2.522 2.136-.71.726-1.292 1.369-1.292 1.43 0 .06-.131.234-.291.385-.471.444-.732.799-.59.802.072.001.051.057-.046.125-.274.188-1.14 1.528-1.587 2.455-.221.459-.477.889-.569.956-.111.082-.111.124 0 .128.092.002.08.06-.026.127-.236.151-1.066 2.475-.932 2.61.054.053.022.096-.07.096-.091 0-.171.094-.176.208-.006.115-.127.659-.27 1.209-.143.55-.305 1.444-.36 1.988-.055.543-.138 1.049-.184 1.124-.294.476.075 8.896.401 9.129.07.051.121.204.112.342-.01.137.042.373.115.524.073.15.164.532.204.848.039.316.32 1.168.624 1.893.305.725.561 1.356.569 1.402.073.398.961 2 1.109 2 .104 0 .143.046.086.103-.056.057.007.213.141.347.134.134.201.312.149.396-.052.085-.026.154.057.154.084 0 .366.337.627.75.26.412.534.75.607.75.074 0 .134.083.134.184 0 .101.188.332.418.513.23.181.374.4.321.487-.054.086-.003.137.112.111.115-.025.315.166.443.424.129.258.359.513.512.568.152.055.394.219.537.364.47.48 1.67 1.434 1.705 1.355.019-.042.247.108.507.334.259.225.513.385.564.354.052-.031.139.009.195.089.242.343 1.072.87 1.224.776.091-.056.226-.004.3.115.074.12.286.241.472.269.185.028.604.202.93.385.326.183.594.278.596.21.001-.067.064-.024.14.095.075.119.299.229.497.244.198.015.36.086.36.158 0 .072.178.131.396.131.218 0 .664.112.991.249.327.136.711.203.854.149.142-.055.259-.017.259.083 0 .101.158.16.35.13.193-.029.873.046 1.512.167 1.608.304 8.251.148 8.826-.208.079-.049.295-.118.479-.153.939-.181 2.474-.615 2.916-.825.433-.205.969-.421 1.25-.504.046-.014.384-.162.75-.331.367-.168.778-.328.914-.355.136-.028.275-.134.309-.237.056-.168.746-.532 1.075-.567.072-.008.202-.127.289-.264.087-.138.159-.18.161-.093.001.086.109.011.239-.167.13-.178.301-.324.379-.324.224 0 1.884-1.26 1.884-1.431 0-.083.094-.154.209-.156.114-.002.508-.346.875-.764.366-.419.878-.979 1.137-1.247.26-.267.417-.485.351-.485s.082-.188.329-.417c.248-.229.405-.416.351-.416-.054 0 .094-.207.33-.459.236-.252.472-.627.525-.833.053-.206.164-.375.246-.375.083 0 .27-.3.417-.667.146-.366.337-.666.422-.666.086 0 .141-.094.122-.209-.042-.256.322-1.169.514-1.288.132-.081.678-1.841.712-2.295.009-.115.083-.208.165-.208.081 0 .102-.075.045-.167-.056-.092-.044-.26.027-.375.072-.115.147-.314.166-.443.02-.129.152-.766.295-1.417.812-3.707.525-9.805-.59-12.528a5.112 5.112 0 0 1-.268-.901c-.037-.227-.157-.47-.266-.539-.108-.069-.137-.126-.063-.128.074-.001.027-.209-.106-.461-.743-1.415-1.278-2.573-1.278-2.765 0-.12-.185-.392-.412-.605-.226-.212-.378-.439-.339-.504.076-.122-.501-.883-1.291-1.703-.252-.262-.458-.529-.458-.595 0-.066-.375-.51-.834-.988-.458-.478-.833-.833-.833-.79 0 .082-.8-.586-1.457-1.216-.215-.207-.463-.375-.55-.375-.088 0-.159-.066-.159-.147 0-.08-.244-.247-.542-.371a4.09 4.09 0 0 1-.93-.561c-.214-.186-.439-.341-.5-.345-.061-.005-.763-.327-1.559-.718-.796-.39-1.659-.747-1.917-.791-.258-.045-.854-.225-1.325-.399-.472-.174-.901-.272-.955-.219-.054.054-.193.019-.31-.077-.117-.097-.55-.216-.962-.265-.413-.049-1.35-.171-2.084-.269-1.497-.202-4.528-.186-5.916.032M72.25 69.982l.312.582c.172.319.3.626.286.681-.015.055.089.215.229.356.141.141.256.363.256.494s.083.238.185.238c.101 0 .141.113.088.25-.052.138-.04.25.028.25.067 0 .309.357.536.792.227.435.453.829.501.875.237.227.654 1.001.541 1.005-.071.003.004.082.167.177.162.094.256.234.21.309-.047.076.026.231.163.344.136.113.248.301.248.418 0 .116.113.255.252.308.138.053.237.155.22.226-.047.2.397 1.044.512.973.056-.035.245.23.419.588.175.359.385.652.467.652.082 0 .103.075.047.167-.057.091-.036.166.047.166.083 0 .292.263.464.584.173.32.372.583.443.583.071 0 .129.096.129.213 0 .117.131.337.292.488.385.364.716.772.712.879-.001.047.155.267.347.488.192.221.342.446.333.5-.01.054.114.237.274.407.161.169.442.519.625.777.184.258.427.564.542.68.115.116.208.273.208.35 0 .076.186.279.414.449.227.171.376.371.331.445-.046.073.064.18.244.237a.72.72 0 0 1 .424.407c.052.166.375.599.716.961.779.826 1.992 2.219 1.934 2.219-.024 0 .505.56 1.176 1.243.67.684 1.184 1.279 1.141 1.321-.042.043.154.198.437.344.283.146.496.321.474.387-.022.067-.003.122.043.123.045 0 .57.507 1.165 1.125.595.618 1.126 1.124 1.18 1.124.054 0 .596.468 1.204 1.041a52.123 52.123 0 0 0 1.705 1.542c.33.275.807.688 1.06.917.254.229.756.637 1.115.907.36.27.714.589.787.708.074.12.204.218.291.218.086 0 .326.145.533.323l.756.648c.208.179.601.417.872.53.272.112.46.26.418.327-.042.068.125.215.37.326.245.112.548.349.673.528.125.178.297.28.382.228.085-.053.155-.004.155.108s.049.156.108.096c.06-.059.247.052.417.248.17.196.309.292.309.215 0-.077.118.005.262.183.144.178.209.211.145.073-.065-.137.102-.025.37.25.269.275.598.525.731.555.133.029.267.124.298.209.03.085.124.113.208.061.084-.052.152-.01.152.092s.067.145.148.095c.081-.05.239.019.351.153.252.304 1.835 1.289 1.835 1.142 0-.059.144.059.32.262.177.203.346.36.375.348.146-.058.762.253 1.096.554.207.186.375.283.375.217 0-.066.339.112.752.397.414.285.976.595 1.25.691.274.095.498.246.498.334 0 .088.064.12.143.072.078-.048.484.129.902.394.417.265.792.449.831.409.04-.039.361.124.714.364.353.239.827.469 1.053.51.227.041.618.221.869.4.251.178.551.325.666.325.115 0 .541.194.946.431.405.237.78.387.834.333.055-.054.265.01.468.143.393.257 3.213 1.426 3.441 1.426.074 0 .51.181.968.402.459.221.783.315.721.208-.062-.106.063-.043.278.14.24.205.338.237.254.083-.111-.203-.095-.211.088-.041a.895.895 0 0 0 .524.208c.165 0 .3.075.3.167 0 .091.057.154.125.139.069-.014.338.061.598.168.259.107.544.151.632.096.088-.054.25-.027.361.061.111.087.501.249.868.36.366.111.779.245.916.298.138.054.308.085.378.07.071-.015.399.085.729.223.33.138.81.251 1.066.251.257 0 .491.068.522.152.03.083.355.198.721.255.365.057 1.003.205 1.416.327.414.123.808.233.877.245.068.012.143.027.166.033.023.006.239.038.48.07 1.056.14 1.695.263 1.841.353.086.053.321.121.522.151s.516.089.699.132c.183.042.746.129 1.25.193s1.179.179 1.5.257c.854.207 2.464.424 4.167.562.696.056 2.065.206 3.25.355 3.168.399 14.718.412 16.833.018.386-.072 3.595-.347 5.417-.464.137-.009.812-.122 1.5-.252a59.01 59.01 0 0 1 2.333-.385 29.997 29.997 0 0 0 1.583-.258c.275-.059.65-.129.834-.156.183-.028.708-.142 1.166-.255a13.96 13.96 0 0 1 1.167-.243 2.87 2.87 0 0 0 .583-.137c.333-.13 1.774-.449 2.492-.552.317-.045.673-.163.792-.262s.216-.124.216-.055c0 .068.11.033.243-.078.134-.11.321-.153.417-.094.095.06.174.045.174-.032s.205-.157.455-.178c.457-.038 2.334-.627 4.045-1.269.504-.189.954-.351 1-.359.046-.008.308-.112.583-.231.275-.12.688-.292.917-.384.229-.091.604-.262.833-.38.229-.118.492-.232.583-.253.259-.058.91-.321 1.988-.802.544-.242 1.05-.422 1.125-.399.076.023.137-.045.137-.152s.044-.151.097-.098c.054.053.364-.084.69-.306.326-.221.665-.402.753-.402.087 0 .379-.157.649-.349.269-.192.592-.364.717-.382.125-.019.329-.113.453-.21a5.59 5.59 0 0 1 .725-.424c.275-.136.893-.483 1.375-.77.481-.288.875-.474.875-.415s.168-.038.375-.216c.569-.491 1.408-1.054 1.648-1.105.117-.025.362-.177.543-.337.182-.161.428-.292.548-.292.121 0 .219-.073.219-.162 0-.09.487-.443 1.083-.786s1.084-.72 1.084-.837c0-.118.056-.199.125-.18.19.054.941-.388 1.091-.643.074-.124.209-.225.301-.225s.407-.225.7-.5c.293-.274.581-.499.641-.5.105 0 .891-.634 1.5-1.209.169-.16.353-.291.407-.291.192 0 .889-.624.798-.715-.051-.05.083-.184.297-.296.214-.113.45-.306.523-.43.073-.124.194-.226.268-.226.22 0 5.5-5.155 7.099-6.931.458-.509.964-1.049 1.125-1.201.16-.151.291-.371.291-.488 0-.118.125-.213.278-.213.153 0 .232-.046.177-.102-.056-.055.086-.299.316-.541.23-.242.724-.872 1.098-1.399.374-.527.744-.958.822-.958.079 0 .143-.117.143-.26 0-.143.075-.214.166-.157.092.057.167-.003.167-.132 0-.13.169-.418.375-.641.42-.454 1.031-1.337 1.037-1.5.003-.058.211-.312.463-.564.252-.252.458-.557.458-.678s.188-.407.417-.637c.229-.229.417-.532.417-.674 0-.141.067-.257.149-.257.083 0 .393-.469.69-1.042.297-.573.587-1.079.645-1.125.058-.046.198-.271.312-.5.113-.229.394-.717.624-1.083.23-.367.492-.854.582-1.084.09-.229.236-.529.325-.666.351-.548 1.92-3.914 1.881-4.036-.023-.072.038-.131.135-.131s.128-.078.069-.174c-.059-.096-.004-.339.123-.542.126-.202.443-.93.703-1.617.261-.688.539-1.322.618-1.409.39-.429.024-1.258-.555-1.258-.345 0-1.635 1.294-1.635 1.64 0 .085-.165.198-.367.251-.203.053-.324.14-.27.194.055.055-.286.502-.757.995-1.411 1.477-2.106 2.282-2.106 2.439 0 .081-.056.148-.125.148-.13 0-.445.3-1.947 1.857-.499.518-.949.899-1.001.847-.051-.051-.093-.002-.093.11 0 .246-2.1 2.352-2.346 2.352-.096 0-.13.072-.076.159.054.087-.07.248-.275.357-.205.11-.711.564-1.124 1.009-.414.445-.803.809-.865.809-.062 0-.47.337-.907.75-.436.412-.869.75-.962.75-.092 0-.119.048-.059.108.059.059-.252.378-.691.708-.44.33-1.029.825-1.31 1.1-.602.589-1.385 1.25-1.481 1.25-.082 0-.55.387-1.451 1.199-.375.339-.741.58-.812.535-.072-.044-.226.073-.343.26-.116.187-.356.34-.533.34-.176 0-.277.043-.224.097.119.118-.475.736-.708.736-.092 0-.167.088-.167.194 0 .107-.048.146-.108.087-.059-.06-.241.045-.404.233-.163.188-.339.318-.391.289-.053-.029-.314.153-.581.405-.267.252-.573.459-.679.459-.107 0-.298.093-.426.208-.539.483-.744.633-.744.541 0-.053-.205.094-.457.327-.251.233-.551.424-.666.424-.116 0-.21.058-.21.13 0 .122-.978.776-1.171.783-.048.002-.266.169-.483.373-.218.203-.45.336-.516.295-.065-.04-.253.075-.417.256-.164.181-.399.329-.522.329-.124 0-.225.075-.225.167 0 .092-.14.167-.313.167a.771.771 0 0 0-.519.249c-.211.254-1.987 1.327-2.204 1.332-.066.001-.273.133-.46.294-.188.16-.444.291-.571.291-.127 0-.278.124-.335.274-.058.151-.152.228-.208.172-.056-.056-.31.045-.563.226-.254.181-.508.328-.564.328-.056 0-.401.189-.766.419-.365.23-.663.375-.663.322 0-.053-.218.058-.484.248-.267.19-.598.345-.737.345-.138 0-.278.079-.31.175-.032.097-.17.196-.306.219-.304.054-2.548 1.108-2.663 1.252a.373.373 0 0 1-.25.107c-.092.002-.552.205-1.022.451-.47.246-.901.401-.958.344-.057-.057-.104-.016-.104.091s-.15.194-.333.194c-.183 0-.333.075-.333.167 0 .091-.188.166-.417.166-.229 0-.417.075-.417.167 0 .092-.056.155-.125.141-.068-.014-.387.087-.708.225-.715.308-1.223.515-1.333.543-.046.012-.309.14-.584.285a5.963 5.963 0 0 1-.916.384 9.761 9.761 0 0 0-1.084.429c-.366.17-.879.347-1.139.393-.26.046-.56.153-.667.239-.106.086-.446.21-.754.276-.308.066-.966.299-1.463.519-.496.22-1.051.399-1.231.399-.181 0-.329.073-.329.162 0 .089-.113.118-.25.065-.138-.052-.25-.008-.25.099 0 .107-.062.156-.137.109-.075-.046-.351.027-.613.163s-.632.276-.822.312c-.189.036-.382.08-.428.098a.505.505 0 0 1-.213.01c-.072-.011-.365.101-.653.249a3.703 3.703 0 0 1-1.13.329c-.335.032-.823.17-1.086.306-.263.136-.539.21-.614.163-.076-.046-.137-.021-.137.056 0 .078-.132.152-.292.166-.743.063-1.394.193-2.667.534-.756.203-1.6.375-1.875.383-.275.007-.5.061-.5.12 0 .058-.243.123-.541.144-.298.022-.767.11-1.042.196-.275.087-.875.194-1.333.239-1.058.103-2.05.237-2.584.35-3.21.68-17.069.911-19.993.334a36.071 36.071 0 0 0-2.234-.33 8.357 8.357 0 0 1-.917-.158c-.15-.042-.76-.127-1.356-.187-1.798-.181-1.889-.196-2.666-.413a9.507 9.507 0 0 0-1.5-.268 9.809 9.809 0 0 1-1.084-.137c-.183-.044-.371-.07-.416-.058-.046.011-.259-.073-.474-.188a3.188 3.188 0 0 0-.917-.276c-.923-.116-2.844-.607-3.302-.843-.243-.126-.618-.232-.833-.236-.215-.004-.691-.12-1.058-.258a8.342 8.342 0 0 0-1-.313c-.97-.185-1.336-.291-1.75-.505a3.84 3.84 0 0 0-.883-.313c-.235-.043-.69-.202-1.009-.353-.32-.152-.681-.291-.803-.31a1.343 1.343 0 0 1-.43-.164c-.114-.071-.208-.086-.208-.032 0 .053-.244-.033-.542-.192-.298-.159-.591-.292-.652-.296a.465.465 0 0 1-.237-.132c-.068-.068-.255-.125-.415-.125-.159 0-.653-.183-1.097-.407-.766-.387-1.995-.937-2.265-1.015a1.523 1.523 0 0 1-.209-.078.915.915 0 0 0-.208-.063c-.069-.011-1.025-.468-2.125-1.015-1.1-.547-2.056-.978-2.125-.958-.069.02-.125-.034-.125-.119 0-.086-.169-.208-.375-.272a3.578 3.578 0 0 1-.81-.423c-.24-.169-.48-.262-.534-.208-.055.054-.384-.123-.732-.394s-1.138-.736-1.756-1.033c-.617-.297-1.166-.611-1.219-.697a.187.187 0 0 0-.256-.058c-.088.054-.139.003-.114-.115.025-.117-.029-.218-.121-.225-.245-.017-1.775-.923-2.202-1.304-.414-.369-.872-.651-1.68-1.033-.302-.143-.589-.363-.637-.49-.048-.126-.27-.275-.493-.331-.222-.056-.404-.168-.404-.248 0-.169-1.186-.926-1.375-.878-.069.017-.125-.035-.125-.116 0-.08-.525-.501-1.165-.935-.642-.435-1.117-.867-1.058-.963.059-.095.033-.127-.058-.071-.091.056-.568-.269-1.06-.724-.492-.455-.95-.827-1.017-.827-.068 0-.24-.166-.383-.37-.143-.204-.259-.299-.259-.212 0 .153-.346-.151-1.282-1.126-.242-.252-.535-.458-.651-.458-.116 0-.259-.15-.317-.334-.059-.183-.195-.332-.303-.332-.109.001-.564-.393-1.013-.875-.448-.482-.752-.764-.676-.626.119.214.099.218-.138.026-.152-.124-.26-.274-.24-.334.02-.06-.019-.129-.086-.153-.238-.087-1.294-1.219-1.294-1.388 0-.094-.059-.134-.131-.09-.071.044-.305-.175-.52-.488-.214-.312-.457-.526-.54-.475-.083.051-.13.029-.105-.051.025-.079-.329-.53-.788-1.003-1.794-1.852-2.165-2.271-2.125-2.405.023-.077-.065-.139-.197-.139-.131 0-.286-.15-.344-.333-.059-.184-.166-.334-.239-.334-.074 0-.325-.281-.558-.625-.233-.343-.767-1-1.186-1.458-.419-.458-.763-.886-.765-.951-.001-.064-.193-.308-.427-.541-.233-.234-.364-.426-.291-.427.073-.002.053-.058-.043-.125-.097-.068-.397-.423-.667-.789-.27-.367-.566-.755-.658-.862C75.92 73.28 75 71.887 75 71.659a.162.162 0 0 0-.164-.159c-.091 0-.279-.274-.419-.609-.205-.489-1.102-1.57-1.29-1.554-.024.002-.231.148-.46.325l-.417.32z" fill="#84D4EC"/></g></svg>